<?xml version="1.0" encoding="UTF-8"?> <svg xmlns="http://www.w3.org/2000/svg" viewBox="0 0 1037.41 311.99"><defs><style>.cls-1{fill:#fff;}</style></defs><title>Recurso 1</title><g id="Capa_2" data-name="Capa 2"><g id="Layer_1" data-name="Layer 1"><path class="cls-1" d="M236.65,282.21q.78-4.4-4.33-6.73l-7.14-2.85q-12.42-5.53-11.79-15.27a14,14,0,0,1,3-8,17.76,17.76,0,0,1,7.59-5.45A26.77,26.77,0,0,1,234.47,242q7.8.15,12.61,4.64t4.73,12H241A7.64,7.64,0,0,0,239.4,253c-1.19-1.36-3.05-2.06-5.56-2.11a11.24,11.24,0,0,0-6.44,1.68,6.89,6.89,0,0,0-3.25,4.83q-.71,4,5.4,6.4l4.88,1.84,2.81,1.3q10.9,5.4,10.21,15.16a14.62,14.62,0,0,1-3,8.23,17.2,17.2,0,0,1-7.4,5.31,26.47,26.47,0,0,1-10.3,1.74A23.18,23.18,0,0,1,216.49,295a15.82,15.82,0,0,1-6.8-6.47,16.71,16.71,0,0,1-2-8.88l10.84,0q-.53,8.76,8.62,8.91a11.43,11.43,0,0,0,6.51-1.73A6.77,6.77,0,0,0,236.65,282.21Z"></path><path class="cls-1" d="M274.78,255.84a16.12,16.12,0,0,1,9.12,2.72,15.31,15.31,0,0,1,5.62,7.29,22.55,22.55,0,0,1,1.27,10.3q-.84,9.54-6.64,15.44a18.73,18.73,0,0,1-14.29,5.75,16,16,0,0,1-9-2.68,15.29,15.29,0,0,1-5.63-7.23,22.1,22.1,0,0,1-1.29-10.21q1-9.92,6.73-15.75A18.39,18.39,0,0,1,274.78,255.84ZM264.24,281a9.25,9.25,0,0,0,1.66,5.6,5.55,5.55,0,0,0,4.48,2.12q4.8.15,7.54-4.41t2.55-12a10,10,0,0,0-1.72-5.67,5.41,5.41,0,0,0-4.49-2.2q-4.67-.15-7.45,4.38T264.24,281Z"></path><path class="cls-1" d="M296.6,296.6l5.58-32.21h-5.77l1.37-7.81,5.77,0,.52-4a15.05,15.05,0,0,1,16.05-13.61,35.6,35.6,0,0,1,5.66.77l-.93,8.29a13.14,13.14,0,0,0-3.06-.44A7.61,7.61,0,0,0,317,249a6.44,6.44,0,0,0-2.46,4.35l-.55,3.26h7.73l-1.37,7.81h-7.69L307.1,296.6Z"></path><path class="cls-1" d="M341.65,246.75l-1.74,9.83h6.65l-1.36,7.84h-6.66l-3.4,20.05a5.1,5.1,0,0,0,.29,2.88q.52,1,2.52,1.08c.39,0,1.45,0,3.18-.19l-.74,8.17a17.7,17.7,0,0,1-6,.86c-3.43,0-6-1.13-7.66-3.22s-2.37-4.93-2.07-8.51l3.44-21.12h-5.66l1.37-7.84h5.66l1.7-9.83Z"></path><path class="cls-1" d="M381.81,282l9.5-25.45h10.4l-16.83,40h-8.73l-3-25-11.68,25h-8.73l-3-40h9.76l.63,25.19,11.43-25.19h7.54Z"></path><path class="cls-1" d="M423.2,296.6a10.52,10.52,0,0,1-.41-3.62,13.58,13.58,0,0,1-10.21,4.36,12.3,12.3,0,0,1-8.71-3.42,10.4,10.4,0,0,1-3.24-8.27,12,12,0,0,1,5.5-10q5.24-3.5,14-3.49l4.88.07.52-2.4a8.06,8.06,0,0,0,.11-2.33,4,4,0,0,0-1.31-2.72,4.51,4.51,0,0,0-3-1,6.37,6.37,0,0,0-4.14,1.2,5.84,5.84,0,0,0-2.18,3.68l-10.47,0a11.63,11.63,0,0,1,5.27-9.3,20.41,20.41,0,0,1,12.37-3.5q6.81.15,10.65,4a11.83,11.83,0,0,1,3.22,10L433,289.09l-.18,2.37a11.39,11.39,0,0,0,.63,4.44l0,.7Zm-8-7.36q4.51.15,7.88-3.92l1.29-6.92-3.62,0q-5.78.15-8.32,3.51a6.08,6.08,0,0,0-1.15,3,3.55,3.55,0,0,0,.83,3.16A4.22,4.22,0,0,0,415.17,289.24Z"></path><path class="cls-1" d="M467.21,266.61a21.25,21.25,0,0,0-3.52-.37,10.1,10.1,0,0,0-8.84,4.18l-4.62,26.18H439.8l6.95-40,9.8,0-1,4.88q3.78-5.65,9.32-5.66a15,15,0,0,1,3.63.52Z"></path><path class="cls-1" d="M485.29,297.34a17.44,17.44,0,0,1-9.3-2.57,15.61,15.61,0,0,1-6.05-6.95,19.37,19.37,0,0,1-1.55-9.75l.11-1.48a25.83,25.83,0,0,1,3.4-10.72,20.48,20.48,0,0,1,7.33-7.53,18.11,18.11,0,0,1,9.91-2.5q7.73.15,11.7,5.69t3,14l-.59,4.55H478.74a8.63,8.63,0,0,0,1.89,6.22,7.22,7.22,0,0,0,5.55,2.4,12.77,12.77,0,0,0,10-4.44l4.78,5.92a14.9,14.9,0,0,1-6.51,5.31A21.29,21.29,0,0,1,485.29,297.34Zm3.33-32.88a7.44,7.44,0,0,0-5.12,1.81q-2.24,1.89-4,6.55h14.35l.23-1a9.83,9.83,0,0,0,0-2.81,5.35,5.35,0,0,0-1.81-3.35A5.71,5.71,0,0,0,488.62,264.46Z"></path><path class="cls-1" d="M563.47,276.7a32.78,32.78,0,0,1-3.29,11.17,18,18,0,0,1-6.25,7.25,14.49,14.49,0,0,1-8.28,2.26,11.54,11.54,0,0,1-9.17-4.33L532.82,312H522.39L532,256.58l9.62,0-.7,4a12.76,12.76,0,0,1,10.21-4.74,11.36,11.36,0,0,1,9.13,4.28q3.25,4.11,3.48,11.18A42.73,42.73,0,0,1,563.47,276.7Zm-10.35-.76.22-3.55a9.88,9.88,0,0,0-1.31-5.7,4.7,4.7,0,0,0-4-2.19,8.6,8.6,0,0,0-7.51,3.85l-3,16.52c.91,2.5,2.87,3.79,5.88,3.89a7.51,7.51,0,0,0,6.28-2.93Q552.16,282.8,553.12,275.94Z"></path><path class="cls-1" d="M589.92,296.6a10.77,10.77,0,0,1-.41-3.62,13.58,13.58,0,0,1-10.21,4.36,12.3,12.3,0,0,1-8.71-3.42,10.36,10.36,0,0,1-3.23-8.27,12,12,0,0,1,5.49-10q5.24-3.5,14-3.49l4.88.07.52-2.4a8.84,8.84,0,0,0,.11-2.33,4,4,0,0,0-1.32-2.72,4.5,4.5,0,0,0-3-1,6.4,6.4,0,0,0-4.15,1.2,5.84,5.84,0,0,0-2.18,3.68l-10.46,0a11.6,11.6,0,0,1,5.27-9.3,20.39,20.39,0,0,1,12.37-3.5q6.79.15,10.65,4a11.89,11.89,0,0,1,3.22,10l-3.07,19.16-.19,2.37a11.39,11.39,0,0,0,.63,4.44l0,.7Zm-8-7.36q4.51.15,7.88-3.92l1.29-6.92-3.62,0q-5.78.15-8.32,3.51a6.08,6.08,0,0,0-1.15,3,3.58,3.58,0,0,0,.83,3.16A4.25,4.25,0,0,0,581.89,289.24Z"></path><path class="cls-1" d="M633.93,266.61a21.14,21.14,0,0,0-3.51-.37,10.09,10.09,0,0,0-8.84,4.18L617,296.6H606.52l7-40,9.8,0-1,4.88q3.76-5.65,9.32-5.66a15,15,0,0,1,3.62.52Z"></path><path class="cls-1" d="M655.75,296.6a10.77,10.77,0,0,1-.41-3.62,13.57,13.57,0,0,1-10.2,4.36,12.27,12.27,0,0,1-8.71-3.42,10.34,10.34,0,0,1-3.24-8.27,12,12,0,0,1,5.49-10q5.24-3.5,14-3.49l4.88.07.52-2.4a8.84,8.84,0,0,0,.11-2.33,4,4,0,0,0-1.32-2.72,4.5,4.5,0,0,0-3-1,6.35,6.35,0,0,0-4.14,1.2,5.81,5.81,0,0,0-2.19,3.68l-10.46,0a11.63,11.63,0,0,1,5.27-9.3,20.39,20.39,0,0,1,12.37-3.5c4.53.1,8.09,1.45,10.65,4a11.86,11.86,0,0,1,3.22,10l-3.07,19.16-.19,2.37a11.39,11.39,0,0,0,.63,4.44l0,.7Zm-8-7.36q4.51.15,7.88-3.92l1.3-6.92-3.63,0c-3.84.1-6.62,1.27-8.32,3.51a6.08,6.08,0,0,0-1.15,3,3.55,3.55,0,0,0,.84,3.16A4.21,4.21,0,0,0,647.72,289.24Z"></path><path class="cls-1" d="M710,297.34a17.44,17.44,0,0,1-9.3-2.57,15.67,15.67,0,0,1-6-6.95,19.37,19.37,0,0,1-1.55-9.75l.11-1.48a26,26,0,0,1,3.4-10.72,20.48,20.48,0,0,1,7.33-7.53,18.11,18.11,0,0,1,9.91-2.5q7.73.15,11.7,5.69t3,14L728,280.1H703.5a8.63,8.63,0,0,0,1.88,6.22,7.22,7.22,0,0,0,5.55,2.4,12.79,12.79,0,0,0,10-4.44l4.77,5.92a14.9,14.9,0,0,1-6.51,5.31A21.29,21.29,0,0,1,710,297.34Zm3.33-32.88a7.44,7.44,0,0,0-5.12,1.81q-2.24,1.89-4,6.55h14.35l.22-1a9.49,9.49,0,0,0,0-2.81A5.35,5.35,0,0,0,717,265.7,5.71,5.71,0,0,0,713.37,264.46Z"></path><path class="cls-1" d="M747.77,256.55l-.85,4.55a14.71,14.71,0,0,1,11.72-5.26,11.33,11.33,0,0,1,6.14,1.7,8,8,0,0,1,3.29,4.41q5.29-6.26,12.43-6.11c3.67.08,6.44,1.33,8.3,3.78s2.64,6,2.35,10.57l-.08.93-4.25,25.48H776.35L780.61,271a18.93,18.93,0,0,0,.11-2.55c-.17-2.59-1.65-3.93-4.44-4s-5.31,1.53-7.36,4.59l-.11.85-4.66,26.7H753.72L758,271.12a17.47,17.47,0,0,0,.11-2.55c-.17-2.62-1.64-4-4.4-4s-5,1.18-7.13,3.74l-5,28.33H731.12l6.92-40Z"></path><path class="cls-1" d="M833.53,276.7a33,33,0,0,1-3.29,11.17,18.12,18.12,0,0,1-6.25,7.25,14.49,14.49,0,0,1-8.28,2.26,11.56,11.56,0,0,1-9.18-4.33L802.87,312H792.44L802,256.58l9.62,0-.71,4a12.77,12.77,0,0,1,10.21-4.74,11.38,11.38,0,0,1,9.14,4.28q3.26,4.11,3.47,11.18A42.53,42.53,0,0,1,833.53,276.7Zm-10.35-.76.22-3.55a9.8,9.8,0,0,0-1.32-5.7,4.67,4.67,0,0,0-4-2.19,8.59,8.59,0,0,0-7.51,3.85l-3,16.52c.91,2.5,2.87,3.79,5.88,3.89a7.53,7.53,0,0,0,6.29-2.93C821.38,283.81,822.53,280.51,823.18,275.94Z"></path><path class="cls-1" d="M864.23,266.61a21.14,21.14,0,0,0-3.52-.37,10.08,10.08,0,0,0-8.83,4.18l-4.63,26.18H836.82l7-40,9.8,0-1,4.88q3.76-5.65,9.31-5.66a15,15,0,0,1,3.63.52Z"></path><path class="cls-1" d="M882.31,297.34a17.44,17.44,0,0,1-9.3-2.57,15.67,15.67,0,0,1-6-6.95,19.48,19.48,0,0,1-1.55-9.75l.11-1.48a26,26,0,0,1,3.4-10.72,20.48,20.48,0,0,1,7.33-7.53,18.11,18.11,0,0,1,9.91-2.5q7.73.15,11.7,5.69t3,14l-.59,4.55H875.77a8.63,8.63,0,0,0,1.88,6.22,7.22,7.22,0,0,0,5.55,2.4,12.79,12.79,0,0,0,10-4.44L898,290.2a14.9,14.9,0,0,1-6.51,5.31A21.29,21.29,0,0,1,882.31,297.34Zm3.33-32.88a7.44,7.44,0,0,0-5.12,1.81q-2.24,1.89-4,6.55h14.35l.22-1a9.85,9.85,0,0,0,0-2.81,5.4,5.4,0,0,0-1.82-3.35A5.71,5.71,0,0,0,885.64,264.46Z"></path><path class="cls-1" d="M926.58,285.32q.6-3-4.1-4.29l-3.37-.85q-11.94-3.3-11.61-11.61a11.47,11.47,0,0,1,5-9.23,18.67,18.67,0,0,1,11.63-3.5q6.76.07,11,3.59a11.8,11.8,0,0,1,4.25,9.36l-10.35,0c0-3.43-1.66-5.16-5.11-5.21a7.29,7.29,0,0,0-4.23,1.22,5,5,0,0,0-2.2,3.29q-.56,3,4.47,4.18l1.48.33a29.65,29.65,0,0,1,7.81,2.79,11.87,11.87,0,0,1,4.16,3.9,9.75,9.75,0,0,1,1.35,5.59,10.74,10.74,0,0,1-2.46,6.66,15.18,15.18,0,0,1-6.44,4.4,22.58,22.58,0,0,1-8.6,1.44,16.9,16.9,0,0,1-11.09-3.83,12.34,12.34,0,0,1-4.51-9.71l9.83.08q.15,5.73,6.14,5.8a8.75,8.75,0,0,0,4.76-1.18A4.66,4.66,0,0,0,926.58,285.32Z"></path><path class="cls-1" d="M964.68,296.6a10.77,10.77,0,0,1-.41-3.62,13.58,13.58,0,0,1-10.21,4.36,12.3,12.3,0,0,1-8.71-3.42,10.36,10.36,0,0,1-3.23-8.27,12,12,0,0,1,5.49-10q5.24-3.5,14-3.49l4.89.07.51-2.4a8.06,8.06,0,0,0,.11-2.33,4,4,0,0,0-1.31-2.72,4.51,4.51,0,0,0-3-1,6.38,6.38,0,0,0-4.14,1.2,5.84,5.84,0,0,0-2.18,3.68l-10.47,0a11.65,11.65,0,0,1,5.27-9.3,20.41,20.41,0,0,1,12.37-3.5q6.81.15,10.66,4a11.85,11.85,0,0,1,3.21,10l-3.07,19.16-.18,2.37a11.39,11.39,0,0,0,.63,4.44l0,.7Zm-8-7.36q4.51.15,7.88-3.92l1.29-6.92-3.62,0q-5.78.15-8.32,3.51a6.08,6.08,0,0,0-1.15,3,3.55,3.55,0,0,0,.83,3.16A4.22,4.22,0,0,0,956.65,289.24Z"></path><path class="cls-1" d="M1004.47,285.32q.6-3-4.1-4.29l-3.37-.85q-11.94-3.3-11.61-11.61a11.47,11.47,0,0,1,5-9.23,18.65,18.65,0,0,1,11.63-3.5q6.76.07,11,3.59a11.83,11.83,0,0,1,4.25,9.36l-10.36,0c0-3.43-1.65-5.16-5.1-5.21a7.26,7.26,0,0,0-4.23,1.22,5,5,0,0,0-2.2,3.29q-.55,3,4.47,4.18l1.48.33a29.56,29.56,0,0,1,7.8,2.79,11.79,11.79,0,0,1,4.16,3.9,9.6,9.6,0,0,1,1.35,5.59,10.67,10.67,0,0,1-2.45,6.66,15.24,15.24,0,0,1-6.44,4.4,22.58,22.58,0,0,1-8.6,1.44A16.88,16.88,0,0,1,986,293.51a12.35,12.35,0,0,1-4.52-9.71l9.84.08q.15,5.73,6.14,5.8a8.71,8.71,0,0,0,4.75-1.18A4.68,4.68,0,0,0,1004.47,285.32Z"></path><path class="cls-1" d="M453.33,37.37c-.16.48-.28,1-.45,1.44-6.21,17.3-20.85,29.67-35.47,31.32l-4.57,17h20.49l-30.78,111H456L499.43,37.37Z"></path><path class="cls-1" d="M585.7,164.78c-20.33,0-36-4.66-43.08-12.78-4.32-5-5.88-11.88-4.65-20.56H681.3l1.61-3.81.5-1.18a83.81,83.81,0,0,0,4.28-12c2.61-10,6.76-35.38-11-56.2-13.71-16.07-36-24.21-66.42-24.21-59.83,0-110.56,34-123.34,82.77-7.3,27.81,2,46.3,11,56.9,16,18.71,44.05,28.6,81.23,28.6,33.31,0,58.05-5.21,73-9.59l4.93-1.43-.41-5.4-1.42-18.84-1-12.75-11.75,3.25c-13.53,3.75-29.78,7.2-56.8,7.2m20.58-94.95c13.54,0,23.12,2.89,27.69,8.33,3.86,4.59,4.42,11.46,3.48,17.53H551.89C562,83,579.81,69.83,606.28,69.83M355.41,34.07c-44.83,0-81.24,19.41-88.51,47.18a31.09,31.09,0,0,0,4.55,25.85c8,11.81,23.36,20.65,47,27,18.37,5.13,22.44,8.79,23.34,10.13.75,1.15.23,3.62,0,4.63-2.05,7.76-13.51,16.84-39.1,16.84-16.63,0-33.36-4.81-41.88-9.27L254.16,153l-3.53,4.85-14.59,20L230.11,186l11.23,5.22c15.21,7.08,36.79,11.14,59.22,11.14,50.64,0,86.95-18.54,94.76-48.38,2.79-10.61,1.38-20.27-4.21-28.71-7.53-11.37-22.17-19.89-46.08-26.8-19.95-5.75-24.24-8.82-25-10.12a5.15,5.15,0,0,1,.24-2.56c2-7.48,14-15,33.1-15,19,0,31.06,5.08,35.37,7.26l6.41,3.23,3.5-4.64L413,57.45l6.07-8.11L407.77,44c-13.49-6.33-32.57-10-52.36-10M1026.63,55.7C1014.21,41.15,993,34.07,961.72,34.07c-26,0-52.89,4.89-73.73,13.4l-5,2,1.32,5.83,3.95,17.34,2.77,12.26,10.49-4.28c15.73-6.4,35.74-10.22,53.5-10.22,18.85,0,24.77,4.55,26.46,6.51,2.19,2.59,2.69,7.19,1.42,13.06-79.84.59-129.1,21.32-138.85,58.53A36.81,36.81,0,0,0,852,182.63c7.67,9,23.35,19.71,54.43,19.71,20.35,0,40.62-4.75,57.19-13.1,0,0-.13,9.4,15.43,9.4a9.41,9.41,0,0,1,3.53.4H1015l0-6.49c0-8.09,1.87-19.17,5.47-32.91l14.21-54.13c5.37-20.47,2.65-37.23-8.1-49.81m-55.42,82.38a19.82,19.82,0,0,1-3.29,6.2c-7.46,10-25.19,21.7-50.58,21.7-10.11,0-15.82-2.5-17.65-4.65s-1-6.51-.57-8.26c4.55-17.33,30.59-26.92,75.48-27.88ZM784.48,98.45c-20-5.75-24.23-8.82-25-10.12a5.11,5.11,0,0,1,.24-2.55c1.95-7.49,14-15,33.08-15,18.94,0,31.06,5.08,35.37,7.26l6.42,3.23,3.48-4.64,14.36-19.13,6.09-8.12L847.21,44c-13.48-6.32-32.55-10-52.34-10-44.84,0-81.23,19.4-88.53,47.18a31,31,0,0,0,4.58,25.85c8,11.81,23.34,20.65,47,27,18.38,5.13,22.44,8.81,23.33,10.13.77,1.15.24,3.62,0,4.63-2,7.77-13.51,16.83-39.1,16.83-16.64,0-33.38-4.79-41.87-9.27L693.62,153l-3.53,4.85-14.61,20L669.57,186l11.22,5.24c15.2,7.07,36.79,11.14,59.21,11.14,50.65,0,87-18.54,94.78-48.38,2.8-10.61,1.37-20.27-4.22-28.71-7.54-11.38-22.17-19.9-46.08-26.8"></path><path class="cls-1" d="M207.62,58.89c-6.23-6-17.63-12.55-37.56-12C130.6,48,104.08,72,89.11,93.94c0,0-11.46,14.34-23.24,5.1-11.17-8.76-10.36-24.64.46-38.66,10-13,55.14-53.85,117.66-31.95A110.15,110.15,0,0,0,16.22,167.69c6.49,5.44,17.22,10.67,34.58,10.71,39.47.1,66.7-23.1,82.32-44.61,0,0,11.88-14,23.39-4.4,10.91,9.1,9.62,24.94-1.62,38.62C145,180,103,216.07,46.09,199.71A110.12,110.12,0,0,0,207.62,58.89"></path></g></g></svg> 